<svg xmlns="http://www.w3.org/2000/svg" viewBox="0 0 512 512" fill="none">
  <defs>
    <linearGradient id="hgLeaf" x1="0.15" y1="0" x2="0.9" y2="1" gradientUnits="objectBoundingBox">
      <stop stop-color="#4ade80"/>
      <stop offset="0.5" stop-color="#22c55e"/>
      <stop offset="1" stop-color="#15803d"/>
    </linearGradient>
    <linearGradient id="hgAccent" x1="0" y1="0" x2="1" y2="1" gradientUnits="objectBoundingBox">
      <stop stop-color="#c084fc"/>
      <stop offset="1" stop-color="#7c3aed"/>
    </linearGradient>
  </defs>
  <rect width="512" height="512" rx="115" fill="#1e1b4b"/>
  <!-- Hoja cannabis 7 folíolos -->
  <g transform="translate(256, 268)">
    <path d="M0 102v38" stroke="#166534" stroke-width="14" stroke-linecap="round"/>
    <g fill="url(#hgLeaf)">
      <path d="M0 102 C-11 80 -15 8 0 -112 C15 8 11 80 0 102"/>
      <path transform="rotate(-34)" d="M0 92 C-10 72 -13 6 0 -96 C13 6 10 72 0 92"/>
      <path transform="rotate(34)" d="M0 92 C-10 72 -13 6 0 -96 C13 6 10 72 0 92"/>
      <path transform="rotate(-68)" d="M0 76 C-8 58 -10 4 0 -82 C10 4 8 58 0 76"/>
      <path transform="rotate(68)" d="M0 76 C-8 58 -10 4 0 -82 C10 4 8 58 0 76"/>
      <path transform="rotate(-102)" d="M0 54 C-6 42 -7 2 0 -58 C7 2 6 42 0 54"/>
      <path transform="rotate(102)" d="M0 54 C-6 42 -7 2 0 -58 C7 2 6 42 0 54"/>
    </g>
    <g stroke="rgba(255,255,255,0.14)" stroke-width="2.5" stroke-linecap="round" fill="none">
      <path d="M0 70 L0 -85"/>
      <path transform="rotate(-34)" d="M0 62 L0 -72"/>
      <path transform="rotate(34)" d="M0 62 L0 -72"/>
    </g>
  </g>
  <!-- Gota hidro (acento) -->
  <g transform="translate(328, 128) scale(1.15)" fill="url(#hgAccent)">
    <path d="M48 52c-.4 0-10 7-10 16.5 0 8 8 14 10 14s10-6 10-14C58 59 48.4 52 48 52z"/>
    <ellipse cx="44" cy="70" rx="3.5" ry="5" fill="rgba(255,255,255,0.45)"/>
  </g>
  <text x="256" y="468" text-anchor="middle" font-family="system-ui,sans-serif" font-size="42" font-weight="700" fill="#e9d5ff">GROW</text>
</svg>
