<svg xmlns="http://www.w3.org/2000/svg" viewBox="0 0 512 512" fill="none">
  <defs>
    <linearGradient id="hgLeaf" x1="0.1" y1="0" x2="0.95" y2="1" gradientUnits="objectBoundingBox">
      <stop stop-color="#4ade80"/>
      <stop offset="0.55" stop-color="#22c55e"/>
      <stop offset="1" stop-color="#15803d"/>
    </linearGradient>
    <linearGradient id="hgAccent" x1="0" y1="0" x2="1" y2="1" gradientUnits="objectBoundingBox">
      <stop stop-color="#c084fc"/>
      <stop offset="1" stop-color="#7c3aed"/>
    </linearGradient>
  </defs>
  <rect width="512" height="512" rx="115" fill="#1e1b4b"/>
  <g transform="translate(72, 88) scale(1.12)">
    <path
      d="M100 18c-36.8 0-64 28.6-64 66.2 0 28.4 17.4 53.8 40.2 66.4 7.4 4.1 15.5 6.4 23.8 6.4s16.4-2.3 23.8-6.4c22.8-12.6 40.2-38 40.2-66.4C164 46.6 136.8 18 100 18z"
      fill="url(#hgLeaf)"/>
    <path d="M100 40v94" stroke="rgba(255,255,255,0.34)" stroke-width="4" stroke-linecap="round"/>
    <path d="M100 58c-18 10-30 24-34 42M100 72c16 12 28 28 32 46" stroke="rgba(255,255,255,0.16)" stroke-width="2.8" stroke-linecap="round"/>
  </g>
  <g transform="translate(248, 132) scale(1.28)" fill="url(#hgAccent)">
    <path
      d="M100 132c-.8 0-21 17-21 38.2 0 18.6 15.6 31.8 21 31.8s21-13.2 21-31.8C121 149 100.8 132 100 132z"/>
    <ellipse cx="93" cy="174" rx="7" ry="10" fill="rgba(255,255,255,0.45)"/>
  </g>
  <text x="256" y="468" text-anchor="middle" font-family="system-ui,sans-serif" font-size="42" font-weight="700" fill="#e9d5ff">GROW</text>
</svg>
