<svg class="torre-svg-diagram nft-escalera-svg nft-svg-diagram--scada nft-diagram--scroll svg-fit-block nft-escalera--dos-caras" data-nft-esc-caras="2" data-nft-esc-nv="4" xmlns="http://www.w3.org/2000/svg" viewBox="0 0 1036 580" width="100%" preserveAspectRatio="xMidYMid meet" role="img" aria-labelledby="nftEscTitle"><title id="nftEscTitle">NFT escalera · 40 L · escalera A · 2 caras · 4 peldaños/cara</title><defs><linearGradient id="nftEscCh" x1="0" y1="0" x2="0" y2="1"><stop offset="0%" stop-color="#e8d4b8"/><stop offset="100%" stop-color="#c9a66b"/></linearGradient><linearGradient id="nftTkBody" x1="0" y1="0" x2="0" y2="1"><stop offset="0%" stop-color="#f8fafc"/><stop offset="100%" stop-color="#e2e8f0"/></linearGradient><linearGradient id="nftTkAq" x1="0" y1="0" x2="0" y2="1"><stop offset="0%" stop-color="#7dd3fc" stop-opacity="0.82"/><stop offset="100%" stop-color="#0284c7" stop-opacity="0.92"/></linearGradient><clipPath id="nftTkClip"><rect x="432" y="425" width="175" height="94" rx="10"/></clipPath><marker id="nftArrSupEsc" viewBox="0 0 10 10" refX="8" refY="5" markerWidth="6" markerHeight="6" orient="auto"><path d="M0 0 L10 5 L0 10 z" fill="#2563eb"/></marker><marker id="nftArrRetEsc" viewBox="0 0 10 10" refX="8" refY="5" markerWidth="6" markerHeight="6" orient="auto"><path d="M0 0 L10 5 L0 10 z" fill="#16a34a"/></marker></defs><g class="nft-flow-legend" transform="translate(12,22)" pointer-events="none" aria-hidden="true"><line x1="0" y1="6" x2="22" y2="6" stroke="#2563eb" stroke-width="3" stroke-linecap="round"/><text x="26" y="9" font-size="10" fill="#1e40af" font-family="system-ui,sans-serif" font-weight="600">Alimentación: depósito → subida central → T → tubos superiores</text><line x1="0" y1="22" x2="22" y2="22" stroke="#16a34a" stroke-width="3" stroke-dasharray="5 4" stroke-linecap="round"/><text x="26" y="25" font-size="10" fill="#166534" font-family="system-ui,sans-serif" font-weight="600">Retorno: cada cara → su puerto en el depósito (izq. y dcha.)</text></g><g class="nft-esc-frame" pointer-events="none" aria-hidden="true"><line x1="519.864" y1="96" x2="30.135999999999967" y2="362" stroke="#94a3b8" stroke-width="2.2" stroke-linecap="round" stroke-dasharray="6 5" opacity="0.78"/><line x1="519.864" y1="96" x2="877.864" y2="362" stroke="#94a3b8" stroke-width="2.2" stroke-linecap="round" stroke-dasharray="6 5" opacity="0.78"/><line x1="30.135999999999967" y1="362" x2="877.864" y2="362" stroke="#cbd5e1" stroke-width="1.8" stroke-linecap="round" opacity="0.65"/><line x1="519.864" y1="126" x2="519.864" y2="354" stroke="#cbd5e1" stroke-width="1" stroke-dasharray="4 5" opacity="0.45"/><line x1="462.86400000000003" y1="130" x2="576.864" y2="130" stroke="#cbd5e1" stroke-width="1.2" stroke-linecap="round" opacity="0.7"/></g><g class="nft-esc-tee-mark" pointer-events="none" aria-hidden="true"><line x1="519.864" y1="114" x2="519.864" y2="126" stroke="#475569" stroke-width="2" stroke-linecap="round" opacity="0.95"/><line x1="453.86400000000003" y1="120" x2="585.864" y2="120" stroke="#475569" stroke-width="2" stroke-linecap="round" opacity="0.95"/></g><g class="nft-esc-face-labels" pointer-events="none" aria-hidden="true"><text x="279.4" y="20" text-anchor="middle" font-size="11" font-weight="800" fill="#166534" font-family="system-ui,sans-serif">Cara izquierda</text><text x="760.3" y="20" text-anchor="middle" font-size="11" font-weight="800" fill="#166534" font-family="system-ui,sans-serif">Cara derecha</text></g><path d="M 443 446 L 520 446 L 520 506 L 519.86 120 L 455.86 120 L 455.86 130 L 320.22 130 L 288.22 130 L 288.22 204 L 419.58 204 L 247.82 204 L 215.82 204 L 215.82 278 L 383.29 278 L 175.41 278 L 143.41 278 L 143.41 352 L 347 352 L 103 352 M 519.86 120 L 583.86 120 L 583.86 130 L 719.50 130 L 751.50 130 L 751.50 204 L 620.15 204 L 791.91 204 L 823.91 204 L 823.91 278 L 656.44 278 L 864.32 278 L 896.32 278 L 896.32 352 L 692.73 352 L 936.73 352" stroke="#2563eb" stroke-linecap="round" stroke-linejoin="round" fill="none" opacity="0.45" stroke-width="5"/><path d="M 103 352 L 95 352 L 95 391 L 443 391 L 443 438 M 936.73 352 L 944.73 352 L 944.73 391 L 596 391 L 596 438" stroke="#16a34a" stroke-linecap="round" stroke-linejoin="round" fill="none" opacity="0.45" stroke-width="5"/><rect x="313.22400000000005" y="119" width="149.64" height="22" rx="8" fill="url(#nftEscCh)" stroke="#92400e" stroke-width="1.05"/><rect x="240.81600000000003" y="193" width="185.76" height="22" rx="8" fill="url(#nftEscCh)" stroke="#92400e" stroke-width="1.05"/><rect x="168.40800000000004" y="267" width="221.87999999999997" height="22" rx="8" fill="url(#nftEscCh)" stroke="#92400e" stroke-width="1.05"/><rect x="96" y="341" width="258" height="22" rx="8" fill="url(#nftEscCh)" stroke="#92400e" stroke-width="1.05"/><rect x="576.864" y="119" width="149.64" height="22" rx="8" fill="url(#nftEscCh)" stroke="#92400e" stroke-width="1.05"/><rect x="613.152" y="193" width="185.76" height="22" rx="8" fill="url(#nftEscCh)" stroke="#92400e" stroke-width="1.05"/><rect x="649.44" y="267" width="221.88" height="22" rx="8" fill="url(#nftEscCh)" stroke="#92400e" stroke-width="1.05"/><rect x="685.7280000000001" y="341" width="258" height="22" rx="8" fill="url(#nftEscCh)" stroke="#92400e" stroke-width="1.05"/><path class="nft-flow-supply" d="M 443 446 L 520 446 L 520 506 L 519.86 120 L 455.86 120 L 455.86 130 L 320.22 130 L 288.22 130 L 288.22 204 L 419.58 204 L 247.82 204 L 215.82 204 L 215.82 278 L 383.29 278 L 175.41 278 L 143.41 278 L 143.41 352 L 347 352 L 103 352 M 519.86 120 L 583.86 120 L 583.86 130 L 719.50 130 L 751.50 130 L 751.50 204 L 620.15 204 L 791.91 204 L 823.91 204 L 823.91 278 L 656.44 278 L 864.32 278 L 896.32 278 L 896.32 352 L 692.73 352 L 936.73 352" stroke="#2563eb" fill="none" stroke-dasharray="11 9" stroke-linecap="round" stroke-linejoin="round" stroke-width="3.4" opacity="0.98" marker-end="url(#nftArrSupEsc)"/><path class="nft-flow-return" d="M 103 352 L 95 352 L 95 391 L 443 391 L 443 438 M 936.73 352 L 944.73 352 L 944.73 391 L 596 391 L 596 438" stroke="#16a34a" fill="none" stroke-dasharray="8 7" stroke-linecap="round" stroke-linejoin="round" stroke-width="3.4" opacity="0.98" marker-end="url(#nftArrRetEsc)"/><circle cx="455.86" cy="121.2" r="12.76" fill="#f8fafc" stroke="#94a3b8" stroke-width="1.1"/><text x="455.86" y="145.32" text-anchor="middle" font-size="8.5" font-weight="800" fill="#475569" pointer-events="none">1</text><circle cx="436.49" cy="121.2" r="12.76" fill="#f8fafc" stroke="#94a3b8" stroke-width="1.1"/><text x="436.49" y="145.32" text-anchor="middle" font-size="8.5" font-weight="800" fill="#475569" pointer-events="none">2</text><circle cx="417.11" cy="121.2" r="12.76" fill="#f8fafc" stroke="#94a3b8" stroke-width="1.1"/><text x="417.11" y="145.32" text-anchor="middle" font-size="8.5" font-weight="800" fill="#475569" pointer-events="none">3</text><circle cx="397.73" cy="121.2" r="12.76" fill="#f8fafc" stroke="#94a3b8" stroke-width="1.1"/><text x="397.73" y="145.32" text-anchor="middle" font-size="8.5" font-weight="800" fill="#475569" pointer-events="none">4</text><circle cx="378.36" cy="121.2" r="12.76" fill="#f8fafc" stroke="#94a3b8" stroke-width="1.1"/><text x="378.36" y="145.32" text-anchor="middle" font-size="8.5" font-weight="800" fill="#475569" pointer-events="none">5</text><circle cx="358.98" cy="121.2" r="12.76" fill="#f8fafc" stroke="#94a3b8" stroke-width="1.1"/><text x="358.98" y="145.32" text-anchor="middle" font-size="8.5" font-weight="800" fill="#475569" pointer-events="none">6</text><circle cx="339.60" cy="121.2" r="12.76" fill="#f8fafc" stroke="#94a3b8" stroke-width="1.1"/><text x="339.60" y="145.32" text-anchor="middle" font-size="8.5" font-weight="800" fill="#475569" pointer-events="none">7</text><circle cx="320.22" cy="121.2" r="12.76" fill="#f8fafc" stroke="#94a3b8" stroke-width="1.1"/><text x="320.22" y="145.32" text-anchor="middle" font-size="8.5" font-weight="800" fill="#475569" pointer-events="none">8</text><circle cx="419.58" cy="195.2" r="12.76" fill="#f8fafc" stroke="#94a3b8" stroke-width="1.1"/><text x="419.58" y="219.32" text-anchor="middle" font-size="8.5" font-weight="800" fill="#475569" pointer-events="none">1</text><circle cx="395.04" cy="195.2" r="12.76" fill="#f8fafc" stroke="#94a3b8" stroke-width="1.1"/><text x="395.04" y="219.32" text-anchor="middle" font-size="8.5" font-weight="800" fill="#475569" pointer-events="none">2</text><circle cx="370.50" cy="195.2" r="12.76" fill="#f8fafc" stroke="#94a3b8" stroke-width="1.1"/><text x="370.50" y="219.32" text-anchor="middle" font-size="8.5" font-weight="800" fill="#475569" pointer-events="none">3</text><circle cx="345.96" cy="195.2" r="12.76" fill="#f8fafc" stroke="#94a3b8" stroke-width="1.1"/><text x="345.96" y="219.32" text-anchor="middle" font-size="8.5" font-weight="800" fill="#475569" pointer-events="none">4</text><circle cx="321.43" cy="195.2" r="12.76" fill="#f8fafc" stroke="#94a3b8" stroke-width="1.1"/><text x="321.43" y="219.32" text-anchor="middle" font-size="8.5" font-weight="800" fill="#475569" pointer-events="none">5</text><circle cx="296.89" cy="195.2" r="12.76" fill="#f8fafc" stroke="#94a3b8" stroke-width="1.1"/><text x="296.89" y="219.32" text-anchor="middle" font-size="8.5" font-weight="800" fill="#475569" pointer-events="none">6</text><circle cx="272.35" cy="195.2" r="12.76" fill="#f8fafc" stroke="#94a3b8" stroke-width="1.1"/><text x="272.35" y="219.32" text-anchor="middle" font-size="8.5" font-weight="800" fill="#475569" pointer-events="none">7</text><circle cx="247.82" cy="195.2" r="12.76" fill="#f8fafc" stroke="#94a3b8" stroke-width="1.1"/><text x="247.82" y="219.32" text-anchor="middle" font-size="8.5" font-weight="800" fill="#475569" pointer-events="none">8</text><circle cx="383.29" cy="269.2" r="12.76" fill="#f8fafc" stroke="#94a3b8" stroke-width="1.1"/><text x="383.29" y="293.32" text-anchor="middle" font-size="8.5" font-weight="800" fill="#475569" pointer-events="none">1</text><circle cx="353.59" cy="269.2" r="12.76" fill="#f8fafc" stroke="#94a3b8" stroke-width="1.1"/><text x="353.59" y="293.32" text-anchor="middle" font-size="8.5" font-weight="800" fill="#475569" pointer-events="none">2</text><circle cx="323.89" cy="269.2" r="12.76" fill="#f8fafc" stroke="#94a3b8" stroke-width="1.1"/><text x="323.89" y="293.32" text-anchor="middle" font-size="8.5" font-weight="800" fill="#475569" pointer-events="none">3</text><circle cx="294.20" cy="269.2" r="12.76" fill="#f8fafc" stroke="#94a3b8" stroke-width="1.1"/><text x="294.20" y="293.32" text-anchor="middle" font-size="8.5" font-weight="800" fill="#475569" pointer-events="none">4</text><circle cx="264.50" cy="269.2" r="12.76" fill="#f8fafc" stroke="#94a3b8" stroke-width="1.1"/><text x="264.50" y="293.32" text-anchor="middle" font-size="8.5" font-weight="800" fill="#475569" pointer-events="none">5</text><circle cx="234.80" cy="269.2" r="12.76" fill="#f8fafc" stroke="#94a3b8" stroke-width="1.1"/><text x="234.80" y="293.32" text-anchor="middle" font-size="8.5" font-weight="800" fill="#475569" pointer-events="none">6</text><circle cx="205.11" cy="269.2" r="12.76" fill="#f8fafc" stroke="#94a3b8" stroke-width="1.1"/><text x="205.11" y="293.32" text-anchor="middle" font-size="8.5" font-weight="800" fill="#475569" pointer-events="none">7</text><circle cx="175.41" cy="269.2" r="12.76" fill="#f8fafc" stroke="#94a3b8" stroke-width="1.1"/><text x="175.41" y="293.32" text-anchor="middle" font-size="8.5" font-weight="800" fill="#475569" pointer-events="none">8</text><circle cx="347.00" cy="343.2" r="12.76" fill="#f8fafc" stroke="#94a3b8" stroke-width="1.1"/><text x="347.00" y="367.32" text-anchor="middle" font-size="8.5" font-weight="800" fill="#475569" pointer-events="none">1</text><circle cx="312.14" cy="343.2" r="12.76" fill="#f8fafc" stroke="#94a3b8" stroke-width="1.1"/><text x="312.14" y="367.32" text-anchor="middle" font-size="8.5" font-weight="800" fill="#475569" pointer-events="none">2</text><circle cx="277.29" cy="343.2" r="12.76" fill="#f8fafc" stroke="#94a3b8" stroke-width="1.1"/><text x="277.29" y="367.32" text-anchor="middle" font-size="8.5" font-weight="800" fill="#475569" pointer-events="none">3</text><circle cx="242.43" cy="343.2" r="12.76" fill="#f8fafc" stroke="#94a3b8" stroke-width="1.1"/><text x="242.43" y="367.32" text-anchor="middle" font-size="8.5" font-weight="800" fill="#475569" pointer-events="none">4</text><circle cx="207.57" cy="343.2" r="12.76" fill="#f8fafc" stroke="#94a3b8" stroke-width="1.1"/><text x="207.57" y="367.32" text-anchor="middle" font-size="8.5" font-weight="800" fill="#475569" pointer-events="none">5</text><circle cx="172.71" cy="343.2" r="12.76" fill="#f8fafc" stroke="#94a3b8" stroke-width="1.1"/><text x="172.71" y="367.32" text-anchor="middle" font-size="8.5" font-weight="800" fill="#475569" pointer-events="none">6</text><circle cx="137.86" cy="343.2" r="12.76" fill="#f8fafc" stroke="#94a3b8" stroke-width="1.1"/><text x="137.86" y="367.32" text-anchor="middle" font-size="8.5" font-weight="800" fill="#475569" pointer-events="none">7</text><circle cx="103.00" cy="343.2" r="12.76" fill="#f8fafc" stroke="#94a3b8" stroke-width="1.1"/><text x="103.00" y="367.32" text-anchor="middle" font-size="8.5" font-weight="800" fill="#475569" pointer-events="none">8</text><circle cx="583.86" cy="121.2" r="12.76" fill="#f8fafc" stroke="#94a3b8" stroke-width="1.1"/><text x="583.86" y="145.32" text-anchor="middle" font-size="8.5" font-weight="800" fill="#475569" pointer-events="none">1</text><circle cx="603.24" cy="121.2" r="12.76" fill="#f8fafc" stroke="#94a3b8" stroke-width="1.1"/><text x="603.24" y="145.32" text-anchor="middle" font-size="8.5" font-weight="800" fill="#475569" pointer-events="none">2</text><circle cx="622.62" cy="121.2" r="12.76" fill="#f8fafc" stroke="#94a3b8" stroke-width="1.1"/><text x="622.62" y="145.32" text-anchor="middle" font-size="8.5" font-weight="800" fill="#475569" pointer-events="none">3</text><circle cx="642.00" cy="121.2" r="12.76" fill="#f8fafc" stroke="#94a3b8" stroke-width="1.1"/><text x="642.00" y="145.32" text-anchor="middle" font-size="8.5" font-weight="800" fill="#475569" pointer-events="none">4</text><circle cx="661.37" cy="121.2" r="12.76" fill="#f8fafc" stroke="#94a3b8" stroke-width="1.1"/><text x="661.37" y="145.32" text-anchor="middle" font-size="8.5" font-weight="800" fill="#475569" pointer-events="none">5</text><circle cx="680.75" cy="121.2" r="12.76" fill="#f8fafc" stroke="#94a3b8" stroke-width="1.1"/><text x="680.75" y="145.32" text-anchor="middle" font-size="8.5" font-weight="800" fill="#475569" pointer-events="none">6</text><circle cx="700.13" cy="121.2" r="12.76" fill="#f8fafc" stroke="#94a3b8" stroke-width="1.1"/><text x="700.13" y="145.32" text-anchor="middle" font-size="8.5" font-weight="800" fill="#475569" pointer-events="none">7</text><circle cx="719.50" cy="121.2" r="12.76" fill="#f8fafc" stroke="#94a3b8" stroke-width="1.1"/><text x="719.50" y="145.32" text-anchor="middle" font-size="8.5" font-weight="800" fill="#475569" pointer-events="none">8</text><circle cx="620.15" cy="195.2" r="12.76" fill="#f8fafc" stroke="#94a3b8" stroke-width="1.1"/><text x="620.15" y="219.32" text-anchor="middle" font-size="8.5" font-weight="800" fill="#475569" pointer-events="none">1</text><circle cx="644.69" cy="195.2" r="12.76" fill="#f8fafc" stroke="#94a3b8" stroke-width="1.1"/><text x="644.69" y="219.32" text-anchor="middle" font-size="8.5" font-weight="800" fill="#475569" pointer-events="none">2</text><circle cx="669.23" cy="195.2" r="12.76" fill="#f8fafc" stroke="#94a3b8" stroke-width="1.1"/><text x="669.23" y="219.32" text-anchor="middle" font-size="8.5" font-weight="800" fill="#475569" pointer-events="none">3</text><circle cx="693.76" cy="195.2" r="12.76" fill="#f8fafc" stroke="#94a3b8" stroke-width="1.1"/><text x="693.76" y="219.32" text-anchor="middle" font-size="8.5" font-weight="800" fill="#475569" pointer-events="none">4</text><circle cx="718.30" cy="195.2" r="12.76" fill="#f8fafc" stroke="#94a3b8" stroke-width="1.1"/><text x="718.30" y="219.32" text-anchor="middle" font-size="8.5" font-weight="800" fill="#475569" pointer-events="none">5</text><circle cx="742.84" cy="195.2" r="12.76" fill="#f8fafc" stroke="#94a3b8" stroke-width="1.1"/><text x="742.84" y="219.32" text-anchor="middle" font-size="8.5" font-weight="800" fill="#475569" pointer-events="none">6</text><circle cx="767.37" cy="195.2" r="12.76" fill="#f8fafc" stroke="#94a3b8" stroke-width="1.1"/><text x="767.37" y="219.32" text-anchor="middle" font-size="8.5" font-weight="800" fill="#475569" pointer-events="none">7</text><circle cx="791.91" cy="195.2" r="12.76" fill="#f8fafc" stroke="#94a3b8" stroke-width="1.1"/><text x="791.91" y="219.32" text-anchor="middle" font-size="8.5" font-weight="800" fill="#475569" pointer-events="none">8</text><circle cx="656.44" cy="269.2" r="12.76" fill="#f8fafc" stroke="#94a3b8" stroke-width="1.1"/><text x="656.44" y="293.32" text-anchor="middle" font-size="8.5" font-weight="800" fill="#475569" pointer-events="none">1</text><circle cx="686.14" cy="269.2" r="12.76" fill="#f8fafc" stroke="#94a3b8" stroke-width="1.1"/><text x="686.14" y="293.32" text-anchor="middle" font-size="8.5" font-weight="800" fill="#475569" pointer-events="none">2</text><circle cx="715.83" cy="269.2" r="12.76" fill="#f8fafc" stroke="#94a3b8" stroke-width="1.1"/><text x="715.83" y="293.32" text-anchor="middle" font-size="8.5" font-weight="800" fill="#475569" pointer-events="none">3</text><circle cx="745.53" cy="269.2" r="12.76" fill="#f8fafc" stroke="#94a3b8" stroke-width="1.1"/><text x="745.53" y="293.32" text-anchor="middle" font-size="8.5" font-weight="800" fill="#475569" pointer-events="none">4</text><circle cx="775.23" cy="269.2" r="12.76" fill="#f8fafc" stroke="#94a3b8" stroke-width="1.1"/><text x="775.23" y="293.32" text-anchor="middle" font-size="8.5" font-weight="800" fill="#475569" pointer-events="none">5</text><circle cx="804.93" cy="269.2" r="12.76" fill="#f8fafc" stroke="#94a3b8" stroke-width="1.1"/><text x="804.93" y="293.32" text-anchor="middle" font-size="8.5" font-weight="800" fill="#475569" pointer-events="none">6</text><circle cx="834.62" cy="269.2" r="12.76" fill="#f8fafc" stroke="#94a3b8" stroke-width="1.1"/><text x="834.62" y="293.32" text-anchor="middle" font-size="8.5" font-weight="800" fill="#475569" pointer-events="none">7</text><circle cx="864.32" cy="269.2" r="12.76" fill="#f8fafc" stroke="#94a3b8" stroke-width="1.1"/><text x="864.32" y="293.32" text-anchor="middle" font-size="8.5" font-weight="800" fill="#475569" pointer-events="none">8</text><circle cx="692.73" cy="343.2" r="12.76" fill="#f8fafc" stroke="#94a3b8" stroke-width="1.1"/><text x="692.73" y="367.32" text-anchor="middle" font-size="8.5" font-weight="800" fill="#475569" pointer-events="none">1</text><circle cx="727.59" cy="343.2" r="12.76" fill="#f8fafc" stroke="#94a3b8" stroke-width="1.1"/><text x="727.59" y="367.32" text-anchor="middle" font-size="8.5" font-weight="800" fill="#475569" pointer-events="none">2</text><circle cx="762.44" cy="343.2" r="12.76" fill="#f8fafc" stroke="#94a3b8" stroke-width="1.1"/><text x="762.44" y="367.32" text-anchor="middle" font-size="8.5" font-weight="800" fill="#475569" pointer-events="none">3</text><circle cx="797.30" cy="343.2" r="12.76" fill="#f8fafc" stroke="#94a3b8" stroke-width="1.1"/><text x="797.30" y="367.32" text-anchor="middle" font-size="8.5" font-weight="800" fill="#475569" pointer-events="none">4</text><circle cx="832.16" cy="343.2" r="12.76" fill="#f8fafc" stroke="#94a3b8" stroke-width="1.1"/><text x="832.16" y="367.32" text-anchor="middle" font-size="8.5" font-weight="800" fill="#475569" pointer-events="none">5</text><circle cx="867.01" cy="343.2" r="12.76" fill="#f8fafc" stroke="#94a3b8" stroke-width="1.1"/><text x="867.01" y="367.32" text-anchor="middle" font-size="8.5" font-weight="800" fill="#475569" pointer-events="none">6</text><circle cx="901.87" cy="343.2" r="12.76" fill="#f8fafc" stroke="#94a3b8" stroke-width="1.1"/><text x="901.87" y="367.32" text-anchor="middle" font-size="8.5" font-weight="800" fill="#475569" pointer-events="none">7</text><circle cx="936.73" cy="343.2" r="12.76" fill="#f8fafc" stroke="#94a3b8" stroke-width="1.1"/><text x="936.73" y="367.32" text-anchor="middle" font-size="8.5" font-weight="800" fill="#475569" pointer-events="none">8</text><rect x="429" y="422" width="181" height="100" rx="12" fill="url(#nftTkBody)" stroke="#94a3b8" stroke-width="1.2"/><rect x="432" y="442" width="175" height="77" fill="url(#nftTkAq)" clip-path="url(#nftTkClip)" opacity="0.8"></rect><ellipse cx="519.5" cy="442" rx="82.5" ry="5" fill="#0284c7" opacity="0.3"></ellipse><text x="519.5" y="477" text-anchor="middle" fill="#0284c7" font-size="21" font-weight="900" font-family="system-ui,sans-serif">40 L mezcla</text><g class="nft-flow-ports" pointer-events="none"><circle cx="520" cy="506" r="5.5" fill="#2563eb" stroke="#fef3c7" stroke-width="1.4"/><circle cx="443" cy="438" r="5.5" fill="#16a34a" stroke="#fef3c7" stroke-width="1.4"/><circle cx="596" cy="438" r="5.5" fill="#16a34a" stroke="#fef3c7" stroke-width="1.4"/></g></svg>