<svg xmlns="http://www.w3.org/2000/svg" viewBox="0 0 512 512" fill="none">
  <defs>
    <linearGradient id="sbLeaf" x1="0.1" y1="0" x2="0.95" y2="1" gradientUnits="objectBoundingBox">
      <stop stop-color="#4ade80"/>
      <stop offset="0.5" stop-color="#22c55e"/>
      <stop offset="1" stop-color="#15803d"/>
    </linearGradient>
    <linearGradient id="sbDrop" x1="0.3" y1="0" x2="0.5" y2="1" gradientUnits="objectBoundingBox">
      <stop stop-color="#b5f5e8"/>
      <stop offset="0.45" stop-color="#6ee7b7"/>
      <stop offset="1" stop-color="#34d399"/>
    </linearGradient>
  </defs>
  <!-- Solo el squircle verde: el resto del viewBox es transparente (sin blanco) -->
  <rect width="512" height="512" rx="115" fill="#14532d"/>
  <!-- Hoja (izquierda) -->
  <g transform="translate(62, 92) scale(1.14)">
    <path
      d="M100 18c-36.8 0-64 28.6-64 66.2 0 28.4 17.4 53.8 40.2 66.4 7.4 4.1 15.5 6.4 23.8 6.4s16.4-2.3 23.8-6.4c22.8-12.6 40.2-38 40.2-66.4C164 46.6 136.8 18 100 18z"
      fill="url(#sbLeaf)"/>
    <path d="M100 40v94" stroke="rgba(255,255,255,0.34)" stroke-width="4" stroke-linecap="round"/>
    <path d="M100 58c-18 10-30 24-34 42M100 72c16 12 28 28 32 46" stroke="rgba(255,255,255,0.16)" stroke-width="2.8" stroke-linecap="round"/>
  </g>
  <!-- Gota (derecha) -->
  <g transform="translate(252, 148) scale(1.32)" fill="url(#sbDrop)">
    <path
      d="M100 132c-.8 0-21 17-21 38.2 0 18.6 15.6 31.8 21 31.8s21-13.2 21-31.8C121 149 100.8 132 100 132z"/>
    <ellipse cx="93" cy="174" rx="7" ry="10" fill="rgba(255,255,255,0.4)"/>
    <path d="M108 166q8 10 3 22" stroke="#0c2818" stroke-width="3.2" stroke-linecap="round" fill="none" opacity="0.45"/>
  </g>
</svg>
